# xmcd
#
# Track frame offsets:
#	150
#	18758
#	44388
#
# Disc length: 826 seconds
#
# Revision: 5
# Processed by: cddbd v1.4PL0 Copyright (c) Steve Scherf et al.
# Submitted via: EasyCDDAExtractor 4.6.0.1
#
DISCID=18033803
DTITLE=Sheryl Crow - My Favourite Mistake CD 1
DYEAR=1998
DGENRE=Folk
TTITLE0=My Favourite Mistake
TTITLE1=In Need (Non LP track)
TTITLE2=Carolina (Non LP track)
EXTD=
EXTT0=Written by Sheryl Crow and Jeff Trott\nRecorded by Trina Shoemaker at Glob
EXTT0=e Studios, New York, NY\nMixed by Tchad Blake at Sunset Sound Factory, L
EXTT0=os Angeles,\nCA
EXTT1=Written by Sheryl Crow\nEngineered and mixed by Trina Shoemaker at Globe
EXTT1=Studios, New York, NY
EXTT2=Written by Sheryl Crow and Jeff Trott\nRecorded by Trina Shoemaker at Glob
EXTT2=e Studios, New York, NY\nMixed by Tchad Blake at Sunset Sound Factory, L
EXTT2=os Angeles,\nCA
PLAYORDER=
